PathFileType	4	(X/Y/Z)	/Users/itak/Documents/Research/Walk-IL/dataset/trc/00582_00009.trc
DataRate	CameraRate	NumFrames	NumMarkers	Units	OrigDataRate	OrigDataStartFrame	OrigNumFrames
100.000000	100.000000	4	54	mm	100.000000	311	499
Frame#	Time	RPSI			LPSI			L3			STRN			C7			CLAV			RBAK			LBAK			LSHO			LUPA			LAEL			LAOL			LWTS			LWPS			LFRA			LHPS			LHTS			RSHO			RUPA			RAEL			RAOL			RWTS			RWPS			RFRA			RIFD			RHTS			RHPS			RBHD			LFHD			RFHD			LBHD			LHIP			RHIP			RASI			LASI			LKNE			LTHI			LANK			LTIP			LTOE			LMT1			LMT5			LHEE			RKNE			RTHI			RANK			RTIP			RTOE			RMT1			RMT5			RHEE			LIFD			T10			*53			
		X1	Y1	Z1	X2	Y2	Z2	X3	Y3	Z3	X4	Y4	Z4	X5	Y5	Z5	X6	Y6	Z6	X7	Y7	Z7	X8	Y8	Z8	X9	Y9	Z9	X10	Y10	Z10	X11	Y11	Z11	X12	Y12	Z12	X13	Y13	Z13	X14	Y14	Z14	X15	Y15	Z15	X16	Y16	Z16	X17	Y17	Z17	X18	Y18	Z18	X19	Y19	Z19	X20	Y20	Z20	X21	Y21	Z21	X22	Y22	Z22	X23	Y23	Z23	X24	Y24	Z24	X25	Y25	Z25	X26	Y26	Z26	X27	Y27	Z27	X28	Y28	Z28	X29	Y29	Z29	X30	Y30	Z30	X31	Y31	Z31	X32	Y32	Z32	X33	Y33	Z33	X34	Y34	Z34	X35	Y35	Z35	X36	Y36	Z36	X37	Y37	Z37	X38	Y38	Z38	X39	Y39	Z39	X40	Y40	Z40	X41	Y41	Z41	X42	Y42	Z42	X43	Y43	Z43	X44	Y44	Z44	X45	Y45	Z45	X46	Y46	Z46	X47	Y47	Z47	X48	Y48	Z48	X49	Y49	Z49	X50	Y50	Z50	X51	Y51	Z51	X52	Y52	Z52	X53	Y53	Z53	X54	Y54	Z54	

312	3.11	313.8431396484375	998.4080810546875	674.5471801757812	273.7881774902344	998.9203491210938	545.843505859375	297.345458984375	1098.057983398438	601.1483764648438	519.8535766601562	1284.20654296875	516.496337890625	342.9097595214844	1497.19140625	591.7318725585938	502.8188171386719	1395.994384765625	522.4278564453125	305.2811584472656	1373.462524414062	696.5362548828125	279.0797424316406	1444.427612304688	516.9163818359375	341.7888793945312	1469.209594726562	405.9000549316406	307.9210205078125	1342.417114257812	333.7965087890625	331.6581726074219	1126.703857421875	301.5485229492188	271.4023742675781	1103.9638671875	381.0737915039062	506.1495971679688	936.947265625	297.4710998535156	448.7817687988281	892.2142333984375	249.1296691894531	372.9415893554688	1052.703491210938	281.62255859375	481.0020446777344	840.34814453125	250.5053863525391	540.4529418945312	868.508544921875	268.5457458496094	450.9259948730469	1458.621948242188	717.6989135742188	458.465087890625	1394.655029296875	787.6170043945312	488.9903259277344	1107.233276367188	834.4318237304688	429.2765808105469	1084.7646484375	829.0452270507812	623.3943481445312	902.1196899414062	747.508544921875	605.8598022460938	877.8795166015625	823.9127807617188	506.6193542480469	1053.05029296875	837.7208251953125	654.1089477539062	734.14404296875	743.4341430664062	669.2672119140625	817.1205444335938	752.3759155273438	631.1156005859375	808.67431640625	815.958251953125	459.5550842285156	1678.741333007812	625.7955322265625	525.4773559570312	1693.651733398438	430.0763549804688	583.4257202148438	1693.234497070312	561.7855834960938	399.4339904785156	1676.959716796875	471.45068359375	360.6298217773438	915.0941772460938	386.2970581054688	476.7361450195312	938.5700073242188	749.4728393554688	536.3515014648438	974.6050415039062	666.81201171875	448.7985229492188	948.4703369140625	407.5487060546875	464.3848876953125	482.7091674804688	499.4944152832031	434.3317565917969	642.0805053710938	441.82958984375	340.5439758300781	39.16215133666992	591.5777587890625	387.5281066894531	240.5442504882812	547.5642700195312	557.404541015625	39.29401779174805	630.044677734375	486.1381530761719	43.2027702331543	671.6447143554688	460.8035583496094	40.05938339233398	566.5406494140625	276.7066650390625	40.87660598754883	650.8938598632812	619.4751586914062	523.2267456054688	682.1563720703125	552.7755126953125	799.1549682617188	730.326904296875	534.1570434570312	61.77954864501953	787.9645385742188	619.83203125	378.8119201660156	696.6290893554688	721.1849365234375	63.16731643676758	674.732666015625	648.307861328125	53.90036392211914	657.9974365234375	661.8430786132812	58.69456481933594	760.7734375	464.2785034179688	47.97797775268555	757.807373046875	549.2418212890625	785.9762573242188	309.3865661621094	290.5003967285156	1223.339233398438	598.6466674804688	nan	nan	nan	
313	3.12	321.1979064941406	998.2337646484375	674.6948852539062	279.43212890625	998.6488647460938	546.488037109375	303.5772094726562	1097.902465820312	601.4574584960938	525.1611328125	1283.910034179688	513.7420654296875	349.4190368652344	1497.01171875	591.3721923828125	508.2988586425781	1395.722900390625	519.9534912109375	313.1388854980469	1373.26513671875	696.7372436523438	284.6288757324219	1444.272827148438	517.4278564453125	345.7334899902344	1468.98681640625	405.5993957519531	310.8919067382812	1342.23193359375	333.9065246582031	334.4618530273438	1126.57373046875	301.3461608886719	275.2149658203125	1103.635986328125	381.551513671875	509.8382263183594	937.789794921875	295.3222351074219	452.0848388671875	892.7597045898438	247.6424255371094	375.8760070800781	1052.815673828125	280.9145812988281	484.7412719726562	841.1009521484375	248.4903717041016	544.2515869140625	869.6001586914062	265.9111328125	459.0995788574219	1458.3115234375	715.8851318359375	467.8315734863281	1394.42626953125	785.758544921875	499.0045471191406	1107.034301757812	832.3836059570312	439.1743774414062	1084.551635742188	827.7734375	632.0304565429688	901.506103515625	744.2655639648438	615.4039916992188	877.535888671875	821.0262451171875	516.7100219726562	1052.940795898438	835.643310546875	662.3690795898438	733.4327392578125	740.3460693359375	677.9287109375	816.4432373046875	748.9324340820312	640.5729370117188	808.1226196289062	812.92822265625	466.2391357421875	1678.393920898438	624.1405639648438	530.5249633789062	1693.367065429688	427.8882446289062	589.5521850585938	1692.823364257812	559.1362915039062	404.8381652832031	1676.773315429688	470.279052734375	364.0375061035156	914.680419921875	385.7529907226562	485.4161682128906	938.7647094726562	747.3921508789062	543.4686279296875	974.521484375	663.7385864257812	452.4730529785156	948.0664672851562	405.7172546386719	467.158447265625	482.0043029785156	498.2896118164062	437.4147033691406	641.5545654296875	440.7953796386719	340.5821228027344	39.42008209228516	591.8601684570312	388.8189392089844	240.4307861328125	547.172119140625	557.4781494140625	39.20768356323242	630.013671875	486.3134765625	43.26043701171875	671.6087036132812	460.7757873535156	39.99083709716797	566.562255859375	276.8347778320312	41.39665222167969	651.2254638671875	629.6322021484375	524.1658935546875	676.5816650390625	561.8845825195312	799.6968994140625	726.6036376953125	558.2119140625	59.10697174072266	776.697265625	633.704833984375	379.505615234375	688.6524047851562	741.4437255859375	65.54044342041016	657.3353271484375	668.1776733398438	55.46282196044922	642.8550415039062	685.0419921875	58.58064270019531	745.1627807617188	487.7268981933594	44.55088043212891	748.5545043945312	553.962158203125	787.0472412109375	306.5459899902344	296.8590087890625	1223.161254882812	599.013916015625	nan	nan	nan	
314	3.13	328.4798278808594	998.0142211914062	674.72705078125	285.063232421875	998.3690185546875	547.0249633789062	309.7797546386719	1097.716918945312	601.6956787109375	530.4363403320312	1283.592529296875	510.9673156738281	355.9109802246094	1496.798217773438	590.9674682617188	513.738037109375	1395.433471679688	517.4468383789062	320.9581298828125	1373.041015625	696.8597412109375	290.1609802246094	1444.0888671875	517.9112548828125	349.6580810546875	1468.723388671875	405.274169921875	313.7973022460938	1341.993408203125	334.0506286621094	337.1136779785156	1126.37255859375	301.2033081054688	278.9358520507812	1103.289428710938	382.1406860351562	513.1801147460938	938.3902587890625	293.1921997070312	455.0532836914062	893.1390991210938	246.1354675292969	378.6017150878906	1052.819580078125	280.2813415527344	488.0071411132812	841.632080078125	246.5262451171875	547.5944213867188	870.3826904296875	263.3287048339844	467.2179565429688	1457.972045898438	714.0093383789062	477.1464233398438	1394.160766601562	783.8285522460938	508.928955078125	1106.798828125	830.253173828125	448.953125	1084.314819335938	826.3861083984375	640.5281982421875	900.8402709960938	740.9652709960938	624.8112182617188	877.1558837890625	818.0697021484375	526.7061767578125	1052.794311523438	833.48291015625	670.5153198242188	732.6779174804688	737.1969604492188	686.4586791992188	815.7225952148438	745.4442138671875	649.971923828125	807.5551147460938	809.9019775390625	472.8874816894531	1678.030395507812	622.4369506835938	535.5450439453125	1693.05224609375	425.6517944335938	595.6356811523438	1692.405395507812	556.4298706054688	410.2144775390625	1676.561401367188	469.0646362304688	367.5044250488281	914.2833862304688	385.1701965332031	494.1834411621094	938.9418334960938	745.1784057617188	550.4827880859375	974.3297729492188	660.6813354492188	456.1741333007812	947.645751953125	403.8940124511719	469.8855285644531	481.2991333007812	497.0326843261719	440.4690246582031	641.0233154296875	439.6868591308594	340.6327514648438	39.71392059326172	592.2083740234375	390.0638122558594	240.3474578857422	546.7960815429688	557.5604248046875	39.12767028808594	629.9583129882812	486.5256652832031	43.33340072631836	671.5560302734375	460.75390625	39.94616317749023	566.588623046875	277.0060119628906	41.97826385498047	651.6576538085938	639.5665283203125	525.0266723632812	671.078857421875	570.86181640625	800.1753540039062	722.8794555664062	581.1358032226562	56.80516052246094	764.5717163085938	647.0825805664062	380.2453002929688	680.556884765625	760.4990844726562	68.02108001708984	639.5451049804688	686.9337158203125	57.25923538208008	627.1820068359375	706.9707641601562	58.62270355224609	728.9383544921875	510.1110534667969	41.63385009765625	738.324462890625	558.1474609375	787.8323364257812	303.7250671386719	303.2057189941406	1222.950927734375	599.3128662109375	nan	nan	nan	
315	3.14	335.6931762695312	997.7542114257812	674.6414184570312	290.6814575195312	998.0878295898438	547.4546508789062	315.9547119140625	1097.504028320312	601.8614501953125	535.690185546875	1283.260131835938	508.1798706054688	362.3844604492188	1496.55029296875	590.5150756835938	519.14697265625	1395.129150390625	514.9129638671875	328.7420043945312	1372.793701171875	696.8927612304688	295.6830749511719	1443.878051757812	518.3527221679688	353.5846557617188	1468.426391601562	404.9143981933594	316.6624145507812	1341.707885742188	334.2202758789062	339.6327209472656	1126.107666015625	301.117919921875	282.5686950683594	1102.939453125	382.819091796875	516.1876831054688	938.745361328125	291.0890502929688	457.6786193847656	893.3472290039062	244.6337280273438	381.1320190429688	1052.72021484375	279.7243041992188	490.8057556152344	841.9387817382812	244.6240539550781	550.4947509765625	870.8569946289062	260.80322265625	475.2723693847656	1457.60986328125	712.0771484375	486.3721923828125	1393.86181640625	781.8275756835938	518.7556762695312	1106.53515625	828.0452270507812	458.6045227050781	1084.056640625	824.8873291015625	648.8887329101562	900.1399536132812	737.6099243164062	634.0862426757812	876.7508544921875	815.03271484375	536.5791625976562	1052.60888671875	831.2296752929688	678.5474853515625	731.8970947265625	733.986083984375	694.8381958007812	814.9718627929688	741.890625	659.2679443359375	806.9800415039062	806.8529663085938	479.5051879882812	1677.655517578125	620.6844482421875	540.5388793945312	1692.719848632812	423.37353515625	601.6834716796875	1691.989501953125	553.667236328125	415.5662536621094	1676.329711914062	467.8105163574219	371.0363464355469	913.910400390625	384.5550842285156	502.9909973144531	939.0848999023438	742.866943359375	557.4028930664062	974.03759765625	657.6481323242188	459.9172058105469	947.2135009765625	402.0679626464844	472.5577087402344	480.6019287109375	495.7371215820312	443.4856262207031	640.4923095703125	438.5210876464844	340.69580078125	40.0535888671875	592.6162109375	391.2630615234375	240.3003234863281	546.4398803710938	557.6627807617188	39.05842590332031	629.8629760742188	486.7683715820312	43.41656494140625	671.4957885742188	460.7411804199219	39.92491912841797	566.620361328125	277.2144775390625	42.63113403320312	652.1729736328125	649.2479858398438	525.8004760742188	665.6430053710938	579.6500854492188	800.5619506835938	719.2061157226562	602.922607421875	54.83454132080078	751.6959838867188	659.951904296875	381.0169677734375	672.3756713867188	778.4696655273438	70.62764739990234	621.555419921875	704.6773071289062	59.27178573608398	611.1444702148438	727.6757202148438	58.82947540283203	712.2822875976562	531.4232177734375	39.16904830932617	727.1904296875	561.80078125	788.318115234375	300.9388122558594	309.5448913574219	1222.714233398438	599.54052734375	nan	nan	nan	
